<?xml version="1.0" encoding="UTF-8" standalone="no"?>
<svg xmlns="http://www.w3.org/2000/svg" width="800" height="200" viewBox="0 0 800 200">
  <g transform="translate(0,-852.36218)">
    <path
       d="m 50,902.36218 c 0,0 25,0 50,0 25,0 25,50.00002 50,50.00002 25,0 25,-50.00002 50,-50.00002 25,0 25,50.00002 50,50.00002 25,0 25,-50.00002 50,-50.00002 25,0 25,50.00002 50,50.00002 25,0 25,-50.00002 50,-50.00002 25,0 25,50.00002 50,50.00002 25,0 25,-50.00002 50,-50.00002 25,0 25,50.00002 50,50.00002 25,0 25,-50.00002 50,-50.00002 25,0 50,0 50,0 0,0 0,25 0,50 0,25 -50,25 -50,50 0,25 50,25 50,50 0,25 0,50 0,50 0,0 -25,0 -50,0 -25,0 -25,-50 -50,-50 -25,0 -25,50 -50,50 -25,0 -25,-50 -50,-50 -25,0 -25,50 -50,50 -25,0 -25,-50 -50,-50 -25,0 -25,50 -50,50 -25,0 -25,-50 -50,-50 -25,0 -25,50 -50,50 -25,0 -25,-50 -50,-50 -25,0 -25,50 -50,50 -25,0 -25,-50 -50,-50 -25,0 -50,0 -50,0 0,0 0,-25 0,-50 0,-25 50,-25 50,-50 0,-25 -50,-25 -50,-50 0,-25 0,-50 0,-50 z"
       style="fill:#2196f3;fill-opacity:1;stroke:none" />
  </g>
</svg>
