<?xml version="1.0" encoding="UTF-8" standalone="no"?>
<svg xmlns="http://www.w3.org/2000/svg" width="800" height="800" viewBox="0 0 800 800">
  <g transform="translate(0,-252.36218)">
    <path
       d="M 400,252.36218 C 179.08629,252.36218 0,431.44847 0,652.36218 c 0,220.91372 179.08629,400.00002 400,400.00002 220.91371,0 400,-179.0863 400,-400.00002 0,-220.91371 -179.08629,-400 -400,-400 z m 0,40 c 198.82234,0 360,161.17766 360,360 0,198.82234 -161.17766,360.00002 -360,360.00002 -198.82234,0 -360,-161.17768 -360,-360.00002 0,-198.82234 161.17766,-360 360,-360 z"
       style="opacity:0.1;fill:#ffffff;fill-opacity:1;stroke:none" />
    <path
       d="m 400,292.36218 c -198.82234,0 -360,161.17766 -360,360 0,198.82234 161.17766,360.00002 360,360.00002 198.82234,0 360,-161.17768 360,-360.00002 0,-198.82234 -161.17766,-360 -360,-360 z m 0,40 c 176.73097,0 320,143.26903 320,320 0,176.73097 -143.26903,320.00002 -320,320.00002 -176.73097,0 -320,-143.26905 -320,-320.00002 0,-176.73097 143.26903,-320 320,-320 z"
       style="opacity:0.1;fill:#ffffff;fill-opacity:1;stroke:none" />
    <path
       d="m 400,332.36218 c -176.73097,0 -320,143.26903 -320,320 0,176.73097 143.26903,320.00002 320,320.00002 176.73097,0 320,-143.26905 320,-320.00002 0,-176.73097 -143.26903,-320 -320,-320 z m 0,40 c 154.6396,0 280,125.3604 280,280 0,154.6396 -125.3604,280.00002 -280,280.00002 -154.6396,0 -280,-125.36042 -280,-280.00002 0,-154.6396 125.3604,-280 280,-280 z"
       style="opacity:0.1;fill:#ffffff;fill-opacity:1;stroke:none" />
    <path
       d="m 400,372.36218 c -154.6396,0 -280,125.3604 -280,280 0,154.6396 125.3604,280.00002 280,280.00002 154.6396,0 280,-125.36042 280,-280.00002 0,-154.6396 -125.3604,-280 -280,-280 z m 0,40 c 132.54823,0 240,107.45177 240,240 0,132.54823 -107.45177,240.00002 -240,240.00002 -132.54823,0 -240,-107.45179 -240,-240.00002 0,-132.54823 107.45177,-240 240,-240 z"
       style="opacity:0.1;fill:#ffffff;fill-opacity:1;stroke:none" />
    <path
       d="m 400,412.36218 c -132.54823,0 -240,107.45177 -240,240 0,132.54823 107.45177,240.00002 240,240.00002 132.54823,0 240,-107.45179 240,-240.00002 0,-132.54823 -107.45177,-240 -240,-240 z m 0,40 c 110.45686,0 200,89.54314 200,200 0,110.45686 -89.54314,200.00002 -200,200.00002 -110.45686,0 -200,-89.54316 -200,-200.00002 0,-110.45686 89.54314,-200 200,-200 z"
       style="opacity:0.1;fill:#ffffff;fill-opacity:1;stroke:none" />
    <path
       d="m 400,452.36218 c -110.45686,0 -200,89.54314 -200,200 0,110.45686 89.54314,200.00002 200,200.00002 110.45686,0 200,-89.54316 200,-200.00002 0,-110.45686 -89.54314,-200 -200,-200 z m 0,40 c 88.36549,0 160,71.63451 160,160 0,88.36549 -71.63451,160.00002 -160,160.00002 -88.36549,0 -160,-71.63453 -160,-160.00002 0,-88.36549 71.63451,-160 160,-160 z"
       style="opacity:0.1;fill:#ffffff;fill-opacity:1;stroke:none" />
    <path
       d="m 400,492.36218 c -88.36549,0 -160,71.63451 -160,160 0,88.36549 71.63451,160.00002 160,160.00002 88.36549,0 160,-71.63453 160,-160.00002 0,-88.36549 -71.63451,-160 -160,-160 z m 0,40 c 66.27412,0 120,53.72588 120,120 0,66.27412 -53.72588,120.00002 -120,120.00002 -66.27412,0 -120,-53.7259 -120,-120.00002 0,-66.27412 53.72588,-120 120,-120 z"
       style="opacity:0.1;fill:#ffffff;fill-opacity:1;stroke:none" />
    <path
       d="m 400,532.36218 c -66.27412,0 -120,53.72588 -120,120 0,66.27412 53.72588,120.00002 120,120.00002 66.27412,0 120,-53.7259 120,-120.00002 0,-66.27412 -53.72588,-120 -120,-120 z m 0,40 c 44.18275,0 80,35.81725 80,80 0,44.18275 -35.81725,80.00002 -80,80.00002 -44.18275,0 -80,-35.81727 -80,-80.00002 0,-44.18275 35.81725,-80 80,-80 z"
       style="opacity:0.1;fill:#ffffff;fill-opacity:1;stroke:none" />
    <path
       d="m 400,572.36218 c -44.18275,0 -80,35.81725 -80,80 0,44.18275 35.81725,80.00002 80,80.00002 44.18275,0 80,-35.81727 80,-80.00002 0,-44.18275 -35.81725,-80 -80,-80 z m 0,40 c 22.09138,0 40,17.90862 40,40 0,22.09138 -17.90862,40.00002 -40,40.00002 -22.09138,0 -40,-17.90864 -40,-40.00002 0,-22.09138 17.90862,-40 40,-40 z"
       style="opacity:0.1;fill:#ffffff;fill-opacity:1;stroke:none" />
    <path
       d="m 400,612.36218 c -22.09138,0 -40,17.90862 -40,40 0,22.09138 17.90862,40.00002 40,40.00002 22.09138,0 40,-17.90864 40,-40.00002 0,-22.09138 -17.90862,-40 -40,-40 z"
       style="opacity:0.1;fill:#ffffff;fill-opacity:1;stroke:none" />
    <path
       d="m 200,652.36218 c 0,110.45686 89.54314,200.00002 200,200.00002 110.45686,0 200,-89.54316 200,-200.00002 l -40,0 c 0,88.36549 -71.63451,160.00002 -160,160.00002 -88.36549,0 -160,-71.63453 -160,-160.00002 l -40,0 z"
       style="opacity:0.1;fill:#ffffff;fill-opacity:1;stroke:none" />
    <path
       d="m 240,652.36218 c 0,88.36549 71.63451,160.00002 160,160.00002 88.36549,0 160,-71.63453 160,-160.00002 l -40,0 c 0,66.27412 -53.72588,120.00002 -120,120.00002 -66.27412,0 -120,-53.7259 -120,-120.00002 l -40,0 z"
       style="opacity:0.1;fill:#ffffff;fill-opacity:1;stroke:none" />
    <path
       d="m 280,652.36218 c 0,66.27412 53.72588,120.00002 120,120.00002 66.27412,0 120,-53.7259 120,-120.00002 l -40,0 c 0,44.18275 -35.81725,80.00002 -80,80.00002 -44.18275,0 -80,-35.81727 -80,-80.00002 l -40,0 z"
       style="opacity:0.1;fill:#ffffff;fill-opacity:1;stroke:none" />
    <path
       d="m 320,652.36218 c 0,44.18275 35.81725,80.00002 80,80.00002 44.18275,0 80,-35.81727 80,-80.00002 l -40,0 c 0,22.09138 -17.90862,40.00002 -40,40.00002 -22.09138,0 -40,-17.90864 -40,-40.00002 l -40,0 z"
       style="opacity:0.1;fill:#ffffff;fill-opacity:1;stroke:none" />
    <path
       d="m 360,652.36218 c 0,22.09138 17.90862,40.00002 40,40.00002 22.09138,0 40,-17.90864 40,-40.00002 l -80,0 z"
       style="opacity:0.1;fill:#ffffff;fill-opacity:1;stroke:none" />
    <path
       d="m 200,652.36218 c 0,-110.45686 89.54314,-200 200,-200 110.45686,0 200,89.54314 200,200 l -40,0 c 0,-88.36549 -71.63451,-160 -160,-160 -88.36549,0 -160,71.63451 -160,160 l -40,0 z"
       style="opacity:0.1;fill:#ffffff;fill-opacity:1;stroke:none" />
    <path
       d="m 240,652.36218 c 0,-88.36549 71.63451,-160 160,-160 88.36549,0 160,71.63451 160,160 l -40,0 c 0,-66.27412 -53.72588,-120 -120,-120 -66.27412,0 -120,53.72588 -120,120 l -40,0 z"
       style="opacity:0.1;fill:#ffffff;fill-opacity:1;stroke:none" />
    <path
       d="m 280,652.36218 c 0,-66.27412 53.72588,-120 120,-120 66.27412,0 120,53.72588 120,120 l -40,0 c 0,-44.18275 -35.81725,-80 -80,-80 -44.18275,0 -80,35.81725 -80,80 l -40,0 z"
       style="opacity:0.1;fill:#ffffff;fill-opacity:1;stroke:none" />
    <path
       d="m 320,652.36218 c 0,-44.18275 35.81725,-80 80,-80 44.18275,0 80,35.81725 80,80 l -40,0 c 0,-22.09138 -17.90862,-40 -40,-40 -22.09138,0 -40,17.90862 -40,40 l -40,0 z"
       style="opacity:0.1;fill:#ffffff;fill-opacity:1;stroke:none" />
    <path
       d="m 360,652.36218 c 0,-22.09138 17.90862,-40 40,-40 22.09138,0 40,17.90862 40,40 l -80,0 z"
       style="opacity:0.1;fill:#ffffff;fill-opacity:1;stroke:none" />
    <path
       d="m 400,252.36218 0,40 c 198.82234,0 360,161.17766 360,360 0,198.82234 -161.17766,360.00002 -360,360.00002 -198.82234,0 -360,-161.17768 -360,-360.00002 0,-198.82234 161.17766,-360 360,-360 z"
       style="opacity:0.1;fill:#ffffff;fill-opacity:1;stroke:none" />
    <path
       d="m 400,292.36218 0,40 c 176.73097,0 320,143.26903 320,320 0,176.73097 -143.26903,320.00002 -320,320.00002 -176.73097,0 -320,-143.26905 -320,-320.00002 0,-176.73097 143.26903,-320 320,-320 z"
       style="opacity:0.1;fill:#ffffff;fill-opacity:1;stroke:none" />
    <path
       d="m 400,332.36218 0,40 c 154.6396,0 280,125.3604 280,280 0,154.6396 -125.3604,280.00002 -280,280.00002 -154.6396,0 -280,-125.36042 -280,-280.00002 0,-154.6396 125.3604,-280 280,-280 z"
       style="opacity:0.1;fill:#ffffff;fill-opacity:1;stroke:none" />
    <path
       d="m 400,372.36218 0,40 c 132.54823,0 240,107.45177 240,240 0,132.54823 -107.45177,240.00002 -240,240.00002 -132.54823,0 -240,-107.45179 -240,-240.00002 0,-132.54823 107.45177,-240 240,-240 z"
       style="opacity:0.1;fill:#ffffff;fill-opacity:1;stroke:none" />
    <path
       d="m 400,412.36218 0,40 c 110.45686,0 200,89.54314 200,200 0,110.45686 -89.54314,200.00002 -200,200.00002 -110.45686,0 -200,-89.54316 -200,-200.00002 0,-110.45686 89.54314,-200 200,-200 z"
       style="opacity:0.1;fill:#ffffff;fill-opacity:1;stroke:none" />
    <path
       d="m 400,452.36218 0,40 c 88.36549,0 160,71.63451 160,160 0,88.36549 -71.63451,160.00002 -160,160.00002 -88.36549,0 -160,-71.63453 -160,-160.00002 0,-88.36549 71.63451,-160 160,-160 z"
       style="opacity:0.1;fill:#ffffff;fill-opacity:1;stroke:none" />
    <path
       d="m 400,492.36218 0,40 c 66.27412,0 120,53.72588 120,120 0,66.27412 -53.72588,120.00002 -120,120.00002 -66.27412,0 -120,-53.7259 -120,-120.00002 0,-66.27412 53.72588,-120 120,-120 z"
       style="opacity:0.1;fill:#ffffff;fill-opacity:1;stroke:none" />
    <path
       d="m 400,532.36218 0,40 c 44.18275,0 80,35.81725 80,80 0,44.18275 -35.81725,80.00002 -80,80.00002 -44.18275,0 -80,-35.81727 -80,-80.00002 0,-44.18275 35.81725,-80 80,-80 z"
       style="opacity:0.1;fill:#ffffff;fill-opacity:1;stroke:none" />
    <path
       d="m 400,572.36218 0,40 c 22.09138,0 40,17.90862 40,40 0,22.09138 -17.90862,40.00002 -40,40.00002 -22.09138,0 -40,-17.90864 -40,-40.00002 0,-22.09138 17.90862,-40 40,-40 z"
       style="opacity:0.1;fill:#ffffff;fill-opacity:1;stroke:none" />
    <path
       d="m 400,612.36218 0,40 c 22.09138,0 40,17.90862 40,40 0,22.09138 -17.90862,40.00002 -40,40.00002 -22.09138,0 -40,-17.90864 -40,-40.00002 0,-22.09138 17.90862,-40 40,-40 z"
       style="opacity:0.1;fill:#ffffff;fill-opacity:1;stroke:none" />
  </g>
</svg>
