<?xml version="1.0" encoding="UTF-8" standalone="no"?>
<svg xmlns="http://www.w3.org/2000/svg" width="200" height="150" viewBox="0 0 200 150">
  <g transform="translate(0,-902.36218)">
    <path
       d="m 100,902.36218 c -25.000002,0 -45.454546,20.45455 -45.454546,45.45455 0,25 20.454544,45.45457 45.454546,45.45457 25,0 45.45455,-20.45457 45.45455,-45.45457 0,-25 -20.45455,-45.45455 -45.45455,-45.45455 z m 0,9.09091 c 20.45455,0 36.36364,15.90909 36.36364,36.36364 0,20.45455 -15.90909,36.36367 -36.36364,36.36367 -20.454546,0 -36.363637,-15.90912 -36.363637,-36.36367 0,-20.45455 15.909091,-36.36364 36.363637,-36.36364 z"
       style="fill:#ff7b00;fill-opacity:1;stroke:none" />
    <path
       d="m 100,911.45309 c -20.454546,0 -36.363637,15.90909 -36.363637,36.36364 0,20.45455 15.909091,36.36367 36.363637,36.36367 20.45455,0 36.36364,-15.90912 36.36364,-36.36367 0,-20.45455 -15.90909,-36.36364 -36.36364,-36.36364 z m 0,9.09091 c 15.15152,0 27.27273,12.12121 27.27273,27.27273 0,15.15152 -12.12121,27.27276 -27.27273,27.27276 -15.151515,0 -27.272728,-12.12124 -27.272728,-27.27276 0,-15.15152 12.121213,-27.27273 27.272728,-27.27273 z"
       style="fill:#ff7b00;fill-opacity:1;stroke:none" />
    <path
       d="m 100,920.54401 c -15.151515,0 -27.272728,12.12121 -27.272728,27.27272 0,15.15153 12.121213,27.27277 27.272728,27.27277 15.15152,0 27.27273,-12.12124 27.27273,-27.27277 0,-15.15151 -12.12121,-27.27272 -27.27273,-27.27272 z m 0,9.0909 c 10.10101,0 18.18182,8.08081 18.18182,18.18182 0,10.10102 -8.08081,18.18183 -18.18182,18.18183 -10.10101,0 -18.181819,-8.08081 -18.181819,-18.18183 0,-10.10101 8.080809,-18.18182 18.181819,-18.18182 z"
       style="fill:#ff7b00;fill-opacity:1;stroke:none" />
    <path
       d="m 100,929.63492 c -10.10101,0 -18.181819,8.08081 -18.181819,18.18181 0,10.10102 8.080809,18.18187 18.181819,18.18187 10.10101,0 18.18182,-8.08085 18.18182,-18.18187 0,-10.101 -8.08081,-18.18181 -18.18182,-18.18181 z m 0,9.0909 c 5.05051,0 9.09091,4.04041 9.09091,9.09091 0,5.05051 -4.0404,9.09093 -9.09091,9.09093 -5.050505,0 -9.090909,-4.04042 -9.090909,-9.09093 0,-5.0505 4.040404,-9.09091 9.090909,-9.09091 z"
       style="fill:#ff7b00;fill-opacity:1;stroke:none" />
    <path
       d="m 100,938.72583 c -5.050505,0 -9.090909,4.04041 -9.090909,9.0909 0,5.05051 4.040404,9.09093 9.090909,9.09093 5.05051,0 9.09091,-4.04042 9.09091,-9.09093 0,-5.05049 -4.0404,-9.0909 -9.09091,-9.0909 z"
       style="fill:#ff7b00;fill-opacity:1;stroke:none" />
    <path
       d="m 63.636364,993.17673 c -5.050505,0 -9.090909,4.04047 -9.090909,9.09097 0,5.0505 4.040404,9.0909 9.090909,9.0909 5.050505,0 9.090909,-4.0404 9.090909,-9.0909 0,-5.0505 -4.040404,-9.09097 -9.090909,-9.09097 z m 0,4.54547 c 2.525253,0 4.545455,2.0202 4.545455,4.5455 0,2.5252 -2.020202,4.5454 -4.545455,4.5454 -2.525252,0 -4.545454,-2.0202 -4.545454,-4.5454 0,-2.5253 2.020202,-4.5455 4.545454,-4.5455 z"
       style="fill:#ff7b00;fill-opacity:1;stroke:none" />
    <path
       d="m 136.36364,993.17673 c -5.05051,0 -9.09091,4.04047 -9.09091,9.09097 0,5.0505 4.0404,9.0909 9.09091,9.0909 5.0505,0 9.09091,-4.0404 9.09091,-9.0909 0,-5.0505 -4.04041,-9.09097 -9.09091,-9.09097 z m 0,4.54547 c 2.52525,0 4.54545,2.0202 4.54545,4.5455 0,2.5252 -2.0202,4.5454 -4.54545,4.5454 -2.52525,0 -4.54545,-2.0202 -4.54545,-4.5454 0,-2.5253 2.0202,-4.5455 4.54545,-4.5455 z"
       style="fill:#ff7b00;fill-opacity:1;stroke:none" />
    <path
       d="m 100,993.17673 c -5.050505,0 -9.090909,4.04047 -9.090909,9.09097 0,5.0505 4.040404,9.0909 9.090909,9.0909 5.05051,0 9.09091,-4.0404 9.09091,-9.0909 0,-5.0505 -4.0404,-9.09097 -9.09091,-9.09097 z m 0,4.54547 c 2.52525,0 4.54545,2.0202 4.54545,4.5455 0,2.5252 -2.0202,4.5454 -4.54545,4.5454 -2.525253,0 -4.545455,-2.0202 -4.545455,-4.5454 0,-2.5253 2.020202,-4.5455 4.545455,-4.5455 z"
       style="fill:#ff7b00;fill-opacity:1;stroke:none" />
    <path
       d="m 63.636364,1002.2677 9.090909,0 0,31.8182 -9.090909,0 z"
       style="fill:#ff7b00;fill-opacity:1;stroke:none" />
    <path
       d="m 95.454545,1002.2677 9.090905,0 0,31.8182 -9.090905,0 z"
       style="fill:#ff7b00;fill-opacity:1;stroke:none" />
    <path
       d="m 127.27273,1002.2677 9.09091,0 0,31.8182 -9.09091,0 z"
       style="fill:#ff7b00;fill-opacity:1;stroke:none" />
    <path
       d="m 72.727273,1029.5404 54.545457,0 0,9.0909 -54.545457,0 z"
       style="fill:#ff7b00;fill-opacity:1;stroke:none" />
  </g>
</svg>
